<?xml version="1.0" encoding="utf-8"?>
<!-- Generator: Adobe Illustrator 19.0.0, SVG Export Plug-In . SVG Version: 6.00 Build 0)  -->
<svg version="1.1" xmlns="http://www.w3.org/2000/svg" xmlns:xlink="http://www.w3.org/1999/xlink" x="0px" y="0px"
	 viewBox="0 0 379.3 400.4" style="enable-background:new 0 0 379.3 400.4;" xml:space="preserve">
<style type="text/css">
	.st0{fill:#231F20;}
	.st1{fill:#4480B2;}
	.st2{fill:url(#XMLID_55_);}
	.st3{opacity:0.25;fill:url(#XMLID_56_);}
	.st4{opacity:0.6;}
	.st5{fill:#232323;}
	.st6{fill:#FFFFFF;}
	.st7{fill:#088FF4;}
</style>
<g id="Layer_1">
	<g id="XMLID_518_">
		<g id="XMLID_2_">
			<path id="XMLID_237_" d="M848.2,262.2h1.7c23,0,43.5,7.9,61.3,23.8c18.3,18.2,27.5,39.9,27.5,65.3c0,4.7-1.3,18.1-4,40.1
				l-9.6,86.9c-2,10.7-5.3,20.5-9.7,29.4c-3.7,7.9-9.8,16.8-18.2,26.6c-7.5,7.5-12.9,12.4-16.2,14.5c-20.4,14.8-41.8,22.3-64.4,22.3
				h-1.5c-24.4,0-45.6-8.6-63.5-25.8c-17-17.8-25.5-39-25.5-63.4c0-4.8,1.5-19.9,4.5-45.4c4.2-37.2,7.2-64.1,9-80.7
				c2.6-15.6,8.7-30.5,18.4-44.8c2.7-4.3,7.9-10.3,15.6-18.1c7.5-6.8,14.7-12.2,21.7-16.2C812.6,267.2,830.3,262.2,848.2,262.2z
				 M798.2,474.9c0,9,4.1,16.1,12.4,21.4c4.1,2.2,8.4,3.3,12.8,3.3c10.1,0,18.8-4.8,26-14.4c3.2-5.7,4.9-10.8,4.9-15.5
				c7.2-63.7,11.3-100.7,12.3-110.9c0-9.2-4.1-16.4-12.4-21.7c-4.2-2.2-8.5-3.3-12.8-3.3c-9,0-17,3.9-23.8,11.7
				c-3.2,4.1-5.3,8.1-6.2,12.2c-0.6,2-2.5,18.5-5.7,49.3C800.7,450.2,798.2,472.9,798.2,474.9z"/>
			<path id="XMLID_235_" d="M981.1,264.7h83.5c1.9,0.5,2.8,1.5,2.8,3.2l-18.5,179.8c-7.9,77.9-12,117.5-12.3,118.6
				c-1.1,1.7-2.2,2.6-3.5,2.6h-64.7c-1.9-0.5-2.8-1.5-2.8-3.2L983,394.5l6.4-61.9h-14.8c-1.9,0-3.2-0.9-3.8-2.7v-0.6
				c3.9-39.8,6-60.4,6.3-61.8C978.4,265.6,979.7,264.7,981.1,264.7z"/>
			<path id="XMLID_233_" d="M1109.7,264.7h83.5c1.9,0.5,2.8,1.5,2.8,3.2l-18.5,179.8c-7.9,77.9-12,117.5-12.3,118.6
				c-1.1,1.7-2.2,2.6-3.5,2.6h-64.7c-1.9-0.5-2.8-1.5-2.8-3.2l17.5-171.2l6.4-61.9h-14.8c-1.9,0-3.2-0.9-3.8-2.7v-0.6
				c3.9-39.8,6-60.4,6.3-61.8C1107,265.6,1108.3,264.7,1109.7,264.7z"/>
		</g>
		<g id="XMLID_3_">
			<path id="XMLID_230_" class="st0" d="M848.2,262.2h1.7c23,0,43.5,7.9,61.3,23.8c18.3,18.2,27.5,39.9,27.5,65.3
				c0,4.7-1.3,18.1-4,40.1l-9.6,86.9c-2,10.7-5.3,20.5-9.7,29.4c-3.7,7.9-9.8,16.8-18.2,26.6c-7.5,7.5-12.9,12.4-16.2,14.5
				c-20.4,14.8-41.8,22.3-64.4,22.3h-1.5c-24.4,0-45.6-8.6-63.5-25.8c-17-17.8-25.5-39-25.5-63.4c0-4.8,1.5-19.9,4.5-45.4
				c4.2-37.2,7.2-64.1,9-80.7c2.6-15.6,8.7-30.5,18.4-44.8c2.7-4.3,7.9-10.3,15.6-18.1c7.5-6.8,14.7-12.2,21.7-16.2
				C812.6,267.2,830.3,262.2,848.2,262.2z M798.2,474.9c0,9,4.1,16.1,12.4,21.4c4.1,2.2,8.4,3.3,12.8,3.3c10.1,0,18.8-4.8,26-14.4
				c3.2-5.7,4.9-10.8,4.9-15.5c7.2-63.7,11.3-100.7,12.3-110.9c0-9.2-4.1-16.4-12.4-21.7c-4.2-2.2-8.5-3.3-12.8-3.3
				c-9,0-17,3.9-23.8,11.7c-3.2,4.1-5.3,8.1-6.2,12.2c-0.6,2-2.5,18.5-5.7,49.3C800.7,450.2,798.2,472.9,798.2,474.9z"/>
			<path id="XMLID_228_" class="st0" d="M981.1,264.7h83.5c1.9,0.5,2.8,1.5,2.8,3.2l-18.5,179.8c-7.9,77.9-12,117.5-12.3,118.6
				c-1.1,1.7-2.2,2.6-3.5,2.6h-64.7c-1.9-0.5-2.8-1.5-2.8-3.2L983,394.5l6.4-61.9h-14.8c-1.9,0-3.2-0.9-3.8-2.7v-0.6
				c3.9-39.8,6-60.4,6.3-61.8C978.4,265.6,979.7,264.7,981.1,264.7z"/>
			<path id="XMLID_226_" class="st0" d="M1109.7,264.7h83.5c1.9,0.5,2.8,1.5,2.8,3.2l-18.5,179.8c-7.9,77.9-12,117.5-12.3,118.6
				c-1.1,1.7-2.2,2.6-3.5,2.6h-64.7c-1.9-0.5-2.8-1.5-2.8-3.2l17.5-171.2l6.4-61.9h-14.8c-1.9,0-3.2-0.9-3.8-2.7v-0.6
				c3.9-39.8,6-60.4,6.3-61.8C1107,265.6,1108.3,264.7,1109.7,264.7z"/>
		</g>
		<g id="XMLID_4_">
			<path id="XMLID_223_" class="st0" d="M848.2,262.2h1.7c23,0,43.5,7.9,61.3,23.8c18.3,18.2,27.5,39.9,27.5,65.3
				c0,4.7-1.3,18.1-4,40.1l-9.6,86.9c-2,10.7-5.3,20.5-9.7,29.4c-3.7,7.9-9.8,16.8-18.2,26.6c-7.5,7.5-12.9,12.4-16.2,14.5
				c-20.4,14.8-41.8,22.3-64.4,22.3h-1.5c-24.4,0-45.6-8.6-63.5-25.8c-17-17.8-25.5-39-25.5-63.4c0-4.8,1.5-19.9,4.5-45.4
				c4.2-37.2,7.2-64.1,9-80.7c2.6-15.6,8.7-30.5,18.4-44.8c2.7-4.3,7.9-10.3,15.6-18.1c7.5-6.8,14.7-12.2,21.7-16.2
				C812.6,267.2,830.3,262.2,848.2,262.2z M798.2,474.9c0,9,4.1,16.1,12.4,21.4c4.1,2.2,8.4,3.3,12.8,3.3c10.1,0,18.8-4.8,26-14.4
				c3.2-5.7,4.9-10.8,4.9-15.5c7.2-63.7,11.3-100.7,12.3-110.9c0-9.2-4.1-16.4-12.4-21.7c-4.2-2.2-8.5-3.3-12.8-3.3
				c-9,0-17,3.9-23.8,11.7c-3.2,4.1-5.3,8.1-6.2,12.2c-0.6,2-2.5,18.5-5.7,49.3C800.7,450.2,798.2,472.9,798.2,474.9z"/>
			<path id="XMLID_221_" class="st0" d="M981.1,264.7h83.5c1.9,0.5,2.8,1.5,2.8,3.2l-18.5,179.8c-7.9,77.9-12,117.5-12.3,118.6
				c-1.1,1.7-2.2,2.6-3.5,2.6h-64.7c-1.9-0.5-2.8-1.5-2.8-3.2L983,394.5l6.4-61.9h-14.8c-1.9,0-3.2-0.9-3.8-2.7v-0.6
				c3.9-39.8,6-60.4,6.3-61.8C978.4,265.6,979.7,264.7,981.1,264.7z"/>
			<path id="XMLID_219_" class="st0" d="M1109.7,264.7h83.5c1.9,0.5,2.8,1.5,2.8,3.2l-18.5,179.8c-7.9,77.9-12,117.5-12.3,118.6
				c-1.1,1.7-2.2,2.6-3.5,2.6h-64.7c-1.9-0.5-2.8-1.5-2.8-3.2l17.5-171.2l6.4-61.9h-14.8c-1.9,0-3.2-0.9-3.8-2.7v-0.6
				c3.9-39.8,6-60.4,6.3-61.8C1107,265.6,1108.3,264.7,1109.7,264.7z"/>
		</g>
		<g id="XMLID_5_">
			<path id="XMLID_216_" class="st0" d="M848.2,262.2h1.7c23,0,43.5,7.9,61.3,23.8c18.3,18.2,27.5,39.9,27.5,65.3
				c0,4.7-1.3,18.1-4,40.1l-9.6,86.9c-2,10.7-5.3,20.5-9.7,29.4c-3.7,7.9-9.8,16.8-18.2,26.6c-7.5,7.5-12.9,12.4-16.2,14.5
				c-20.4,14.8-41.8,22.3-64.4,22.3h-1.5c-24.4,0-45.6-8.6-63.5-25.8c-17-17.8-25.5-39-25.5-63.4c0-4.8,1.5-19.9,4.5-45.4
				c4.2-37.2,7.2-64.1,9-80.7c2.6-15.6,8.7-30.5,18.4-44.8c2.7-4.3,7.9-10.3,15.6-18.1c7.5-6.8,14.7-12.2,21.7-16.2
				C812.6,267.2,830.3,262.2,848.2,262.2z M798.2,474.9c0,9,4.1,16.1,12.4,21.4c4.1,2.2,8.4,3.3,12.8,3.3c10.1,0,18.8-4.8,26-14.4
				c3.2-5.7,4.9-10.8,4.9-15.5c7.2-63.7,11.3-100.7,12.3-110.9c0-9.2-4.1-16.4-12.4-21.7c-4.2-2.2-8.5-3.3-12.8-3.3
				c-9,0-17,3.9-23.8,11.7c-3.2,4.1-5.3,8.1-6.2,12.2c-0.6,2-2.5,18.5-5.7,49.3C800.7,450.2,798.2,472.9,798.2,474.9z"/>
			<path id="XMLID_213_" class="st0" d="M981.1,264.7h83.5c1.9,0.5,2.8,1.5,2.8,3.2l-18.5,179.8c-7.9,77.9-12,117.5-12.3,118.6
				c-1.1,1.7-2.2,2.6-3.5,2.6h-64.7c-1.9-0.5-2.8-1.5-2.8-3.2L983,394.5l6.4-61.9h-14.8c-1.9,0-3.2-0.9-3.8-2.7v-0.6
				c3.9-39.8,6-60.4,6.3-61.8C978.4,265.6,979.7,264.7,981.1,264.7z"/>
			<path id="XMLID_211_" class="st0" d="M1109.7,264.7h83.5c1.9,0.5,2.8,1.5,2.8,3.2l-18.5,179.8c-7.9,77.9-12,117.5-12.3,118.6
				c-1.1,1.7-2.2,2.6-3.5,2.6h-64.7c-1.9-0.5-2.8-1.5-2.8-3.2l17.5-171.2l6.4-61.9h-14.8c-1.9,0-3.2-0.9-3.8-2.7v-0.6
				c3.9-39.8,6-60.4,6.3-61.8C1107,265.6,1108.3,264.7,1109.7,264.7z"/>
		</g>
		<g id="XMLID_6_">
			<path id="XMLID_208_" class="st0" d="M848.2,262.2h1.7c23,0,43.5,7.9,61.3,23.8c18.3,18.2,27.5,39.9,27.5,65.3
				c0,4.7-1.3,18.1-4,40.1l-9.6,86.9c-2,10.7-5.3,20.5-9.7,29.4c-3.7,7.9-9.8,16.8-18.2,26.6c-7.5,7.5-12.9,12.4-16.2,14.5
				c-20.4,14.8-41.8,22.3-64.4,22.3h-1.5c-24.4,0-45.6-8.6-63.5-25.8c-17-17.8-25.5-39-25.5-63.4c0-4.8,1.5-19.9,4.5-45.4
				c4.2-37.2,7.2-64.1,9-80.7c2.6-15.6,8.7-30.5,18.4-44.8c2.7-4.3,7.9-10.3,15.6-18.1c7.5-6.8,14.7-12.2,21.7-16.2
				C812.6,267.2,830.3,262.2,848.2,262.2z M798.2,474.9c0,9,4.1,16.1,12.4,21.4c4.1,2.2,8.4,3.3,12.8,3.3c10.1,0,18.8-4.8,26-14.4
				c3.2-5.7,4.9-10.8,4.9-15.5c7.2-63.7,11.3-100.7,12.3-110.9c0-9.2-4.1-16.4-12.4-21.7c-4.2-2.2-8.5-3.3-12.8-3.3
				c-9,0-17,3.9-23.8,11.7c-3.2,4.1-5.3,8.1-6.2,12.2c-0.6,2-2.5,18.5-5.7,49.3C800.7,450.2,798.2,472.9,798.2,474.9z"/>
			<path id="XMLID_206_" class="st0" d="M981.1,264.7h83.5c1.9,0.5,2.8,1.5,2.8,3.2l-18.5,179.8c-7.9,77.9-12,117.5-12.3,118.6
				c-1.1,1.7-2.2,2.6-3.5,2.6h-64.7c-1.9-0.5-2.8-1.5-2.8-3.2L983,394.5l6.4-61.9h-14.8c-1.9,0-3.2-0.9-3.8-2.7v-0.6
				c3.9-39.8,6-60.4,6.3-61.8C978.4,265.6,979.7,264.7,981.1,264.7z"/>
			<path id="XMLID_204_" class="st0" d="M1109.7,264.7h83.5c1.9,0.5,2.8,1.5,2.8,3.2l-18.5,179.8c-7.9,77.9-12,117.5-12.3,118.6
				c-1.1,1.7-2.2,2.6-3.5,2.6h-64.7c-1.9-0.5-2.8-1.5-2.8-3.2l17.5-171.2l6.4-61.9h-14.8c-1.9,0-3.2-0.9-3.8-2.7v-0.6
				c3.9-39.8,6-60.4,6.3-61.8C1107,265.6,1108.3,264.7,1109.7,264.7z"/>
		</g>
		<g id="XMLID_7_">
			<path id="XMLID_201_" class="st0" d="M848.2,262.2h1.7c23,0,43.5,7.9,61.3,23.8c18.3,18.2,27.5,39.9,27.5,65.3
				c0,4.7-1.3,18.1-4,40.1l-9.6,86.9c-2,10.7-5.3,20.5-9.7,29.4c-3.7,7.9-9.8,16.8-18.2,26.6c-7.5,7.5-12.9,12.4-16.2,14.5
				c-20.4,14.8-41.8,22.3-64.4,22.3h-1.5c-24.4,0-45.6-8.6-63.5-25.8c-17-17.8-25.5-39-25.5-63.4c0-4.8,1.5-19.9,4.5-45.4
				c4.2-37.2,7.2-64.1,9-80.7c2.6-15.6,8.7-30.5,18.4-44.8c2.7-4.3,7.9-10.3,15.6-18.1c7.5-6.8,14.7-12.2,21.7-16.2
				C812.6,267.2,830.3,262.2,848.2,262.2z M798.2,474.9c0,9,4.1,16.1,12.4,21.4c4.1,2.2,8.4,3.3,12.8,3.3c10.1,0,18.8-4.8,26-14.4
				c3.2-5.7,4.9-10.8,4.9-15.5c7.2-63.7,11.3-100.7,12.3-110.9c0-9.2-4.1-16.4-12.4-21.7c-4.2-2.2-8.5-3.3-12.8-3.3
				c-9,0-17,3.9-23.8,11.7c-3.2,4.1-5.3,8.1-6.2,12.2c-0.6,2-2.5,18.5-5.7,49.3C800.7,450.2,798.2,472.9,798.2,474.9z"/>
			<path id="XMLID_199_" class="st0" d="M981.1,264.7h83.5c1.9,0.5,2.8,1.5,2.8,3.2l-18.5,179.8c-7.9,77.9-12,117.5-12.3,118.6
				c-1.1,1.7-2.2,2.6-3.5,2.6h-64.7c-1.9-0.5-2.8-1.5-2.8-3.2L983,394.5l6.4-61.9h-14.8c-1.9,0-3.2-0.9-3.8-2.7v-0.6
				c3.9-39.8,6-60.4,6.3-61.8C978.4,265.6,979.7,264.7,981.1,264.7z"/>
			<path id="XMLID_197_" class="st0" d="M1109.7,264.7h83.5c1.9,0.5,2.8,1.5,2.8,3.2l-18.5,179.8c-7.9,77.9-12,117.5-12.3,118.6
				c-1.1,1.7-2.2,2.6-3.5,2.6h-64.7c-1.9-0.5-2.8-1.5-2.8-3.2l17.5-171.2l6.4-61.9h-14.8c-1.9,0-3.2-0.9-3.8-2.7v-0.6
				c3.9-39.8,6-60.4,6.3-61.8C1107,265.6,1108.3,264.7,1109.7,264.7z"/>
		</g>
		<g id="XMLID_8_">
			<path id="XMLID_194_" class="st0" d="M848.2,262.2h1.7c23,0,43.5,7.9,61.3,23.8c18.3,18.2,27.5,39.9,27.5,65.3
				c0,4.7-1.3,18.1-4,40.1l-9.6,86.9c-2,10.7-5.3,20.5-9.7,29.4c-3.7,7.9-9.8,16.8-18.2,26.6c-7.5,7.5-12.9,12.4-16.2,14.5
				c-20.4,14.8-41.8,22.3-64.4,22.3h-1.5c-24.4,0-45.6-8.6-63.5-25.8c-17-17.8-25.5-39-25.5-63.4c0-4.8,1.5-19.9,4.5-45.4
				c4.2-37.2,7.2-64.1,9-80.7c2.6-15.6,8.7-30.5,18.4-44.8c2.7-4.3,7.9-10.3,15.6-18.1c7.5-6.8,14.7-12.2,21.7-16.2
				C812.6,267.2,830.3,262.2,848.2,262.2z M798.2,474.9c0,9,4.1,16.1,12.4,21.4c4.1,2.2,8.4,3.3,12.8,3.3c10.1,0,18.8-4.8,26-14.4
				c3.2-5.7,4.9-10.8,4.9-15.5c7.2-63.7,11.3-100.7,12.3-110.9c0-9.2-4.1-16.4-12.4-21.7c-4.2-2.2-8.5-3.3-12.8-3.3
				c-9,0-17,3.9-23.8,11.7c-3.2,4.1-5.3,8.1-6.2,12.2c-0.6,2-2.5,18.5-5.7,49.3C800.7,450.2,798.2,472.9,798.2,474.9z"/>
			<path id="XMLID_192_" class="st0" d="M981.1,264.7h83.5c1.9,0.5,2.8,1.5,2.8,3.2l-18.5,179.8c-7.9,77.9-12,117.5-12.3,118.6
				c-1.1,1.7-2.2,2.6-3.5,2.6h-64.7c-1.9-0.5-2.8-1.5-2.8-3.2L983,394.5l6.4-61.9h-14.8c-1.9,0-3.2-0.9-3.8-2.7v-0.6
				c3.9-39.8,6-60.4,6.3-61.8C978.4,265.6,979.7,264.7,981.1,264.7z"/>
			<path id="XMLID_190_" class="st0" d="M1109.7,264.7h83.5c1.9,0.5,2.8,1.5,2.8,3.2l-18.5,179.8c-7.9,77.9-12,117.5-12.3,118.6
				c-1.1,1.7-2.2,2.6-3.5,2.6h-64.7c-1.9-0.5-2.8-1.5-2.8-3.2l17.5-171.2l6.4-61.9h-14.8c-1.9,0-3.2-0.9-3.8-2.7v-0.6
				c3.9-39.8,6-60.4,6.3-61.8C1107,265.6,1108.3,264.7,1109.7,264.7z"/>
		</g>
		<g id="XMLID_9_">
			<path id="XMLID_187_" class="st0" d="M848.2,262.2h1.7c23,0,43.5,7.9,61.3,23.8c18.3,18.2,27.5,39.9,27.5,65.3
				c0,4.7-1.3,18.1-4,40.1l-9.6,86.9c-2,10.7-5.3,20.5-9.7,29.4c-3.7,7.9-9.8,16.8-18.2,26.6c-7.5,7.5-12.9,12.4-16.2,14.5
				c-20.4,14.8-41.8,22.3-64.4,22.3h-1.5c-24.4,0-45.6-8.6-63.5-25.8c-17-17.8-25.5-39-25.5-63.4c0-4.8,1.5-19.9,4.5-45.4
				c4.2-37.2,7.2-64.1,9-80.7c2.6-15.6,8.7-30.5,18.4-44.8c2.7-4.3,7.9-10.3,15.6-18.1c7.5-6.8,14.7-12.2,21.7-16.2
				C812.6,267.2,830.3,262.2,848.2,262.2z M798.2,474.9c0,9,4.1,16.1,12.4,21.4c4.1,2.2,8.4,3.3,12.8,3.3c10.1,0,18.8-4.8,26-14.4
				c3.2-5.7,4.9-10.8,4.9-15.5c7.2-63.7,11.3-100.7,12.3-110.9c0-9.2-4.1-16.4-12.4-21.7c-4.2-2.2-8.5-3.3-12.8-3.3
				c-9,0-17,3.9-23.8,11.7c-3.2,4.1-5.3,8.1-6.2,12.2c-0.6,2-2.5,18.5-5.7,49.3C800.7,450.2,798.2,472.9,798.2,474.9z"/>
			<path id="XMLID_185_" class="st0" d="M981.1,264.7h83.5c1.9,0.5,2.8,1.5,2.8,3.2l-18.5,179.8c-7.9,77.9-12,117.5-12.3,118.6
				c-1.1,1.7-2.2,2.6-3.5,2.6h-64.7c-1.9-0.5-2.8-1.5-2.8-3.2L983,394.5l6.4-61.9h-14.8c-1.9,0-3.2-0.9-3.8-2.7v-0.6
				c3.9-39.8,6-60.4,6.3-61.8C978.4,265.6,979.7,264.7,981.1,264.7z"/>
			<path id="XMLID_183_" class="st0" d="M1109.7,264.7h83.5c1.9,0.5,2.8,1.5,2.8,3.2l-18.5,179.8c-7.9,77.9-12,117.5-12.3,118.6
				c-1.1,1.7-2.2,2.6-3.5,2.6h-64.7c-1.9-0.5-2.8-1.5-2.8-3.2l17.5-171.2l6.4-61.9h-14.8c-1.9,0-3.2-0.9-3.8-2.7v-0.6
				c3.9-39.8,6-60.4,6.3-61.8C1107,265.6,1108.3,264.7,1109.7,264.7z"/>
		</g>
		<g id="XMLID_10_">
			<path id="XMLID_180_" class="st0" d="M848.2,262.2h1.7c23,0,43.5,7.9,61.3,23.8c18.3,18.2,27.5,39.9,27.5,65.3
				c0,4.7-1.3,18.1-4,40.1l-9.6,86.9c-2,10.7-5.3,20.5-9.7,29.4c-3.7,7.9-9.8,16.8-18.2,26.6c-7.5,7.5-12.9,12.4-16.2,14.5
				c-20.4,14.8-41.8,22.3-64.4,22.3h-1.5c-24.4,0-45.6-8.6-63.5-25.8c-17-17.8-25.5-39-25.5-63.4c0-4.8,1.5-19.9,4.5-45.4
				c4.2-37.2,7.2-64.1,9-80.7c2.6-15.6,8.7-30.5,18.4-44.8c2.7-4.3,7.9-10.3,15.6-18.1c7.5-6.8,14.7-12.2,21.7-16.2
				C812.6,267.2,830.3,262.2,848.2,262.2z M798.2,474.9c0,9,4.1,16.1,12.4,21.4c4.1,2.2,8.4,3.3,12.8,3.3c10.1,0,18.8-4.8,26-14.4
				c3.2-5.7,4.9-10.8,4.9-15.5c7.2-63.7,11.3-100.7,12.3-110.9c0-9.2-4.1-16.4-12.4-21.7c-4.2-2.2-8.5-3.3-12.8-3.3
				c-9,0-17,3.9-23.8,11.7c-3.2,4.1-5.3,8.1-6.2,12.2c-0.6,2-2.5,18.5-5.7,49.3C800.7,450.2,798.2,472.9,798.2,474.9z"/>
			<path id="XMLID_178_" class="st0" d="M981.1,264.7h83.5c1.9,0.5,2.8,1.5,2.8,3.2l-18.5,179.8c-7.9,77.9-12,117.5-12.3,118.6
				c-1.1,1.7-2.2,2.6-3.5,2.6h-64.7c-1.9-0.5-2.8-1.5-2.8-3.2L983,394.5l6.4-61.9h-14.8c-1.9,0-3.2-0.9-3.8-2.7v-0.6
				c3.9-39.8,6-60.4,6.3-61.8C978.4,265.6,979.7,264.7,981.1,264.7z"/>
			<path id="XMLID_176_" class="st0" d="M1109.7,264.7h83.5c1.9,0.5,2.8,1.5,2.8,3.2l-18.5,179.8c-7.9,77.9-12,117.5-12.3,118.6
				c-1.1,1.7-2.2,2.6-3.5,2.6h-64.7c-1.9-0.5-2.8-1.5-2.8-3.2l17.5-171.2l6.4-61.9h-14.8c-1.9,0-3.2-0.9-3.8-2.7v-0.6
				c3.9-39.8,6-60.4,6.3-61.8C1107,265.6,1108.3,264.7,1109.7,264.7z"/>
		</g>
		<g id="XMLID_11_">
			<path id="XMLID_173_" class="st0" d="M848.2,262.2h1.7c23,0,43.5,7.9,61.3,23.8c18.3,18.2,27.5,39.9,27.5,65.3
				c0,4.7-1.3,18.1-4,40.1l-9.6,86.9c-2,10.7-5.3,20.5-9.7,29.4c-3.7,7.9-9.8,16.8-18.2,26.6c-7.5,7.5-12.9,12.4-16.2,14.5
				c-20.4,14.8-41.8,22.3-64.4,22.3h-1.5c-24.4,0-45.6-8.6-63.5-25.8c-17-17.8-25.5-39-25.5-63.4c0-4.8,1.5-19.9,4.5-45.4
				c4.2-37.2,7.2-64.1,9-80.7c2.6-15.6,8.7-30.5,18.4-44.8c2.7-4.3,7.9-10.3,15.6-18.1c7.5-6.8,14.7-12.2,21.7-16.2
				C812.6,267.2,830.3,262.2,848.2,262.2z M798.2,474.9c0,9,4.1,16.1,12.4,21.4c4.1,2.2,8.4,3.3,12.8,3.3c10.1,0,18.8-4.8,26-14.4
				c3.2-5.7,4.9-10.8,4.9-15.5c7.2-63.7,11.3-100.7,12.3-110.9c0-9.2-4.1-16.4-12.4-21.7c-4.2-2.2-8.5-3.3-12.8-3.3
				c-9,0-17,3.9-23.8,11.7c-3.2,4.1-5.3,8.1-6.2,12.2c-0.6,2-2.5,18.5-5.7,49.3C800.7,450.2,798.2,472.9,798.2,474.9z"/>
			<path id="XMLID_171_" class="st0" d="M981.1,264.7h83.5c1.9,0.5,2.8,1.5,2.8,3.2l-18.5,179.8c-7.9,77.9-12,117.5-12.3,118.6
				c-1.1,1.7-2.2,2.6-3.5,2.6h-64.7c-1.9-0.5-2.8-1.5-2.8-3.2L983,394.5l6.4-61.9h-14.8c-1.9,0-3.2-0.9-3.8-2.7v-0.6
				c3.9-39.8,6-60.4,6.3-61.8C978.4,265.6,979.7,264.7,981.1,264.7z"/>
			<path id="XMLID_169_" class="st0" d="M1109.7,264.7h83.5c1.9,0.5,2.8,1.5,2.8,3.2l-18.5,179.8c-7.9,77.9-12,117.5-12.3,118.6
				c-1.1,1.7-2.2,2.6-3.5,2.6h-64.7c-1.9-0.5-2.8-1.5-2.8-3.2l17.5-171.2l6.4-61.9h-14.8c-1.9,0-3.2-0.9-3.8-2.7v-0.6
				c3.9-39.8,6-60.4,6.3-61.8C1107,265.6,1108.3,264.7,1109.7,264.7z"/>
		</g>
		<g id="XMLID_12_">
			<path id="XMLID_166_" class="st0" d="M848.2,262.2h1.7c23,0,43.5,7.9,61.3,23.8c18.3,18.2,27.5,39.9,27.5,65.3
				c0,4.7-1.3,18.1-4,40.1l-9.6,86.9c-2,10.7-5.3,20.5-9.7,29.4c-3.7,7.9-9.8,16.8-18.2,26.6c-7.5,7.5-12.9,12.4-16.2,14.5
				c-20.4,14.8-41.8,22.3-64.4,22.3h-1.5c-24.4,0-45.6-8.6-63.5-25.8c-17-17.8-25.5-39-25.5-63.4c0-4.8,1.5-19.9,4.5-45.4
				c4.2-37.2,7.2-64.1,9-80.7c2.6-15.6,8.7-30.5,18.4-44.8c2.7-4.3,7.9-10.3,15.6-18.1c7.5-6.8,14.7-12.2,21.7-16.2
				C812.6,267.2,830.3,262.2,848.2,262.2z M798.2,474.9c0,9,4.1,16.1,12.4,21.4c4.1,2.2,8.4,3.3,12.8,3.3c10.1,0,18.8-4.8,26-14.4
				c3.2-5.7,4.9-10.8,4.9-15.5c7.2-63.7,11.3-100.7,12.3-110.9c0-9.2-4.1-16.4-12.4-21.7c-4.2-2.2-8.5-3.3-12.8-3.3
				c-9,0-17,3.9-23.8,11.7c-3.2,4.1-5.3,8.1-6.2,12.2c-0.6,2-2.5,18.5-5.7,49.3C800.7,450.2,798.2,472.9,798.2,474.9z"/>
			<path id="XMLID_164_" class="st0" d="M981.1,264.7h83.5c1.9,0.5,2.8,1.5,2.8,3.2l-18.5,179.8c-7.9,77.9-12,117.5-12.3,118.6
				c-1.1,1.7-2.2,2.6-3.5,2.6h-64.7c-1.9-0.5-2.8-1.5-2.8-3.2L983,394.5l6.4-61.9h-14.8c-1.9,0-3.2-0.9-3.8-2.7v-0.6
				c3.9-39.8,6-60.4,6.3-61.8C978.4,265.6,979.7,264.7,981.1,264.7z"/>
			<path id="XMLID_162_" class="st0" d="M1109.7,264.7h83.5c1.9,0.5,2.8,1.5,2.8,3.2l-18.5,179.8c-7.9,77.9-12,117.5-12.3,118.6
				c-1.1,1.7-2.2,2.6-3.5,2.6h-64.7c-1.9-0.5-2.8-1.5-2.8-3.2l17.5-171.2l6.4-61.9h-14.8c-1.9,0-3.2-0.9-3.8-2.7v-0.6
				c3.9-39.8,6-60.4,6.3-61.8C1107,265.6,1108.3,264.7,1109.7,264.7z"/>
		</g>
		<g id="XMLID_13_">
			<path id="XMLID_159_" class="st0" d="M848.2,262.2h1.7c23,0,43.5,7.9,61.3,23.8c18.3,18.2,27.5,39.9,27.5,65.3
				c0,4.7-1.3,18.1-4,40.1l-9.6,86.9c-2,10.7-5.3,20.5-9.7,29.4c-3.7,7.9-9.8,16.8-18.2,26.6c-7.5,7.5-12.9,12.4-16.2,14.5
				c-20.4,14.8-41.8,22.3-64.4,22.3h-1.5c-24.4,0-45.6-8.6-63.5-25.8c-17-17.8-25.5-39-25.5-63.4c0-4.8,1.5-19.9,4.5-45.4
				c4.2-37.2,7.2-64.1,9-80.7c2.6-15.6,8.7-30.5,18.4-44.8c2.7-4.3,7.9-10.3,15.6-18.1c7.5-6.8,14.7-12.2,21.7-16.2
				C812.6,267.2,830.3,262.2,848.2,262.2z M798.2,474.9c0,9,4.1,16.1,12.4,21.4c4.1,2.2,8.4,3.3,12.8,3.3c10.1,0,18.8-4.8,26-14.4
				c3.2-5.7,4.9-10.8,4.9-15.5c7.2-63.7,11.3-100.7,12.3-110.9c0-9.2-4.1-16.4-12.4-21.7c-4.2-2.2-8.5-3.3-12.8-3.3
				c-9,0-17,3.9-23.8,11.7c-3.2,4.1-5.3,8.1-6.2,12.2c-0.6,2-2.5,18.5-5.7,49.3C800.7,450.2,798.2,472.9,798.2,474.9z"/>
			<path id="XMLID_157_" class="st0" d="M981.1,264.7h83.5c1.9,0.5,2.8,1.5,2.8,3.2l-18.5,179.8c-7.9,77.9-12,117.5-12.3,118.6
				c-1.1,1.7-2.2,2.6-3.5,2.6h-64.7c-1.9-0.5-2.8-1.5-2.8-3.2L983,394.5l6.4-61.9h-14.8c-1.9,0-3.2-0.9-3.8-2.7v-0.6
				c3.9-39.8,6-60.4,6.3-61.8C978.4,265.6,979.7,264.7,981.1,264.7z"/>
			<path id="XMLID_155_" class="st0" d="M1109.7,264.7h83.5c1.9,0.5,2.8,1.5,2.8,3.2l-18.5,179.8c-7.9,77.9-12,117.5-12.3,118.6
				c-1.1,1.7-2.2,2.6-3.5,2.6h-64.7c-1.9-0.5-2.8-1.5-2.8-3.2l17.5-171.2l6.4-61.9h-14.8c-1.9,0-3.2-0.9-3.8-2.7v-0.6
				c3.9-39.8,6-60.4,6.3-61.8C1107,265.6,1108.3,264.7,1109.7,264.7z"/>
		</g>
		<g id="XMLID_14_">
			<path id="XMLID_152_" class="st0" d="M848.2,262.2h1.7c23,0,43.5,7.9,61.3,23.8c18.3,18.2,27.5,39.9,27.5,65.3
				c0,4.7-1.3,18.1-4,40.1l-9.6,86.9c-2,10.7-5.3,20.5-9.7,29.4c-3.7,7.9-9.8,16.8-18.2,26.6c-7.5,7.5-12.9,12.4-16.2,14.5
				c-20.4,14.8-41.8,22.3-64.4,22.3h-1.5c-24.4,0-45.6-8.6-63.5-25.8c-17-17.8-25.5-39-25.5-63.4c0-4.8,1.5-19.9,4.5-45.4
				c4.2-37.2,7.2-64.1,9-80.7c2.6-15.6,8.7-30.5,18.4-44.8c2.7-4.3,7.9-10.3,15.6-18.1c7.5-6.8,14.7-12.2,21.7-16.2
				C812.6,267.2,830.3,262.2,848.2,262.2z M798.2,474.9c0,9,4.1,16.1,12.4,21.4c4.1,2.2,8.4,3.3,12.8,3.3c10.1,0,18.8-4.8,26-14.4
				c3.2-5.7,4.9-10.8,4.9-15.5c7.2-63.7,11.3-100.7,12.3-110.9c0-9.2-4.1-16.4-12.4-21.7c-4.2-2.2-8.5-3.3-12.8-3.3
				c-9,0-17,3.9-23.8,11.7c-3.2,4.1-5.3,8.1-6.2,12.2c-0.6,2-2.5,18.5-5.7,49.3C800.7,450.2,798.2,472.9,798.2,474.9z"/>
			<path id="XMLID_150_" class="st0" d="M981.1,264.7h83.5c1.9,0.5,2.8,1.5,2.8,3.2l-18.5,179.8c-7.9,77.9-12,117.5-12.3,118.6
				c-1.1,1.7-2.2,2.6-3.5,2.6h-64.7c-1.9-0.5-2.8-1.5-2.8-3.2L983,394.5l6.4-61.9h-14.8c-1.9,0-3.2-0.9-3.8-2.7v-0.6
				c3.9-39.8,6-60.4,6.3-61.8C978.4,265.6,979.7,264.7,981.1,264.7z"/>
			<path id="XMLID_148_" class="st0" d="M1109.7,264.7h83.5c1.9,0.5,2.8,1.5,2.8,3.2l-18.5,179.8c-7.9,77.9-12,117.5-12.3,118.6
				c-1.1,1.7-2.2,2.6-3.5,2.6h-64.7c-1.9-0.5-2.8-1.5-2.8-3.2l17.5-171.2l6.4-61.9h-14.8c-1.9,0-3.2-0.9-3.8-2.7v-0.6
				c3.9-39.8,6-60.4,6.3-61.8C1107,265.6,1108.3,264.7,1109.7,264.7z"/>
		</g>
		<g id="XMLID_15_">
			<path id="XMLID_145_" d="M848.2,262.2h1.7c23,0,43.5,7.9,61.3,23.8c18.3,18.2,27.5,39.9,27.5,65.3c0,4.7-1.3,18.1-4,40.1
				l-9.6,86.9c-2,10.7-5.3,20.5-9.7,29.4c-3.7,7.9-9.8,16.8-18.2,26.6c-7.5,7.5-12.9,12.4-16.2,14.5c-20.4,14.8-41.8,22.3-64.4,22.3
				h-1.5c-24.4,0-45.6-8.6-63.5-25.8c-17-17.8-25.5-39-25.5-63.4c0-4.8,1.5-19.9,4.5-45.4c4.2-37.2,7.2-64.1,9-80.7
				c2.6-15.6,8.7-30.5,18.4-44.8c2.7-4.3,7.9-10.3,15.6-18.1c7.5-6.8,14.7-12.2,21.7-16.2C812.6,267.2,830.3,262.2,848.2,262.2z
				 M798.2,474.9c0,9,4.1,16.1,12.4,21.4c4.1,2.2,8.4,3.3,12.8,3.3c10.1,0,18.8-4.8,26-14.4c3.2-5.7,4.9-10.8,4.9-15.5
				c7.2-63.7,11.3-100.7,12.3-110.9c0-9.2-4.1-16.4-12.4-21.7c-4.2-2.2-8.5-3.3-12.8-3.3c-9,0-17,3.9-23.8,11.7
				c-3.2,4.1-5.3,8.1-6.2,12.2c-0.6,2-2.5,18.5-5.7,49.3C800.7,450.2,798.2,472.9,798.2,474.9z"/>
			<path id="XMLID_143_" d="M981.1,264.7h83.5c1.9,0.5,2.8,1.5,2.8,3.2l-18.5,179.8c-7.9,77.9-12,117.5-12.3,118.6
				c-1.1,1.7-2.2,2.6-3.5,2.6h-64.7c-1.9-0.5-2.8-1.5-2.8-3.2L983,394.5l6.4-61.9h-14.8c-1.9,0-3.2-0.9-3.8-2.7v-0.6
				c3.9-39.8,6-60.4,6.3-61.8C978.4,265.6,979.7,264.7,981.1,264.7z"/>
			<path id="XMLID_141_" d="M1109.7,264.7h83.5c1.9,0.5,2.8,1.5,2.8,3.2l-18.5,179.8c-7.9,77.9-12,117.5-12.3,118.6
				c-1.1,1.7-2.2,2.6-3.5,2.6h-64.7c-1.9-0.5-2.8-1.5-2.8-3.2l17.5-171.2l6.4-61.9h-14.8c-1.9,0-3.2-0.9-3.8-2.7v-0.6
				c3.9-39.8,6-60.4,6.3-61.8C1107,265.6,1108.3,264.7,1109.7,264.7z"/>
		</g>
	</g>
	<g id="XMLID_507_">
		<path id="XMLID_516_" d="M1236.9,261.3h81.7c1.1,0.2,1.6,0.7,1.6,1.6c-1.8,18.1-2.7,27.3-2.8,27.6l-40.1,55.9l-15.5,21.7h45.6
			c1.2,0.2,1.8,0.7,1.8,1.5c-1.8,18.4-2.8,27.7-2.9,27.7c-0.5,0.8-1.1,1.2-1.9,1.2h-81.7c-1.1-0.2-1.6-0.7-1.6-1.6
			c1.8-18.1,2.7-27.2,2.8-27.4c25.8-36,39.7-55.5,41.7-58.4c0.1,0,4.7-6.5,13.9-19.4h-45.7c-1.2-0.2-1.8-0.7-1.8-1.5
			c1.8-18.4,2.8-27.7,2.9-27.7C1235.5,261.7,1236.1,261.3,1236.9,261.3z"/>
		<path id="XMLID_514_" d="M1345.6,261.3h84.2c1.1,0.2,1.6,0.7,1.6,1.5c-1.8,17.8-2.7,27-2.9,27.6c-0.4,0.8-1.1,1.3-2,1.3h-53.4
			c-0.1,0-0.3,1.4-0.5,4.2l-2,18.8h42.7c1,0,1.6,0.3,1.9,1c0,0.3,0.1,0.4,0.1,0.5c-1.7,18.4-2.7,27.7-2.8,27.7
			c-0.5,0.8-1.2,1.2-2.3,1.2h-42.7c0,0.2-0.8,7.9-2.4,23.1h53.4c1.2,0.1,1.8,0.6,1.8,1.5c-1.8,18-2.7,27.2-2.9,27.6
			c-0.5,0.8-1.1,1.2-1.9,1.2h-84.1c-1-0.2-1.4-0.7-1.4-1.4c5.3-52.1,8.2-80.2,8.7-84.3c3.4-32.9,5.1-49.7,5.2-50.3
			C1344.4,261.7,1345,261.3,1345.6,261.3z"/>
		<path id="XMLID_511_" d="M1458,261.3h41.7c11.5,0,21.7,3.9,30.7,11.6c3.2,3.2,5.4,5.7,6.6,7.6c5.3,7.9,7.9,16.5,7.9,25.6v1.2
			c0,10.7-3.5,21.1-10.4,31.3c-1.6,2.2-3.9,4.9-6.8,7.9c-4.4,4-7.8,6.7-10.3,8c-2.1,1.3-3.9,2.3-5.5,3.1v0.1
			c17.7,25.3,26.8,38.4,27.2,39.1c0.1,0.2,0.1,0.3,0.1,0.4v0.2c0,0.4-0.3,0.6-0.9,0.7h-32.5c-1.6,0-3.1-1.2-4.3-3.5
			c-1.6-2.2-9-12.7-22.1-31.6h-1.4c-2.2,21.9-3.4,33.4-3.6,34.4c-0.4,0.8-1,1.2-1.6,1.2h-29c-0.8,0-1.2-0.5-1.4-1.4l7.8-76.6
			c0.1-0.3,2.1-19.5,6-57.8C1456.5,261.8,1457.2,261.3,1458,261.3z M1485.6,292.4c0.3,0.2,0.4,0.4,0.4,0.6
			c-2.5,24.8-3.8,37.7-4,38.6h5.6c6.4,0,11.9-2.7,16.7-8c3.4-4.3,5.1-8.7,5.1-13.3v-0.8c0-5.2-2.2-9.7-6.6-13.5
			c-2.5-1.7-4.1-2.5-4.6-2.5c-1.5-0.8-4.5-1.2-8.9-1.2H1485.6z"/>
		<path id="XMLID_508_" d="M1632.1,260.2h0.4c16.2,0,30.4,5.3,42.6,16c4.1,4.1,6.5,6.8,7.3,8.1c2.7,3.6,4.9,7.1,6.6,10.8
			c4,8.8,6,18,6,27.5c0,15.8-5.1,30.7-15.2,44.8c-1.9,2.6-4.6,5.7-8.1,9.3c-5.2,4.8-9.6,8.4-13.4,10.7c-13,8.2-26.6,12.3-40.6,12.3
			h-0.4c-16.2,0-30.4-5.3-42.6-16c-4.1-4.1-6.5-6.8-7.3-8.1c-2.7-3.5-4.9-7.1-6.6-10.8c-4-8.8-6-18-6-27.5
			c0-15.8,5.1-30.7,15.2-44.8c1.9-2.6,4.6-5.7,8.1-9.3c5.2-4.8,9.6-8.4,13.4-10.7C1604.5,264.3,1618,260.2,1632.1,260.2z
			 M1628.8,292.3h-0.7c-6.6,0-13.2,1.9-20,5.8c-2.1,1.2-4.8,3.3-8.2,6.3c-3.2,3.3-5.4,6-6.6,8.2c-4.2,6.8-6.3,13.9-6.3,21.2
			c0,9.4,3.4,17.5,10.1,24.4c0.1,0.1,0.9,0.7,2.3,1.9c4.2,3.2,8.7,5.4,13.5,6.4c2.6,0.6,5,0.9,7,0.9h0.9c0,0,0.1,0,0.1,0.1l0.2-0.1
			h0.7c6.6,0,13.2-1.9,20-5.8c2.1-1.2,4.8-3.3,8.2-6.3c3.2-3.3,5.4-6,6.6-8.2c4.2-6.8,6.3-13.9,6.3-21.2c0-9.4-3.4-17.5-10.1-24.4
			c-0.1-0.1-0.9-0.7-2.3-1.9c-4.4-3.4-9.1-5.6-14.2-6.6c-2.5-0.5-4.6-0.7-6.4-0.7h-0.9c0,0-0.1,0-0.1-0.1L1628.8,292.3z"/>
	</g>
	<g id="XMLID_497_">
		<path id="XMLID_504_" d="M1296,436.7h0.4c15.7,0,29.5,5.2,41.3,15.5c4,3.9,6.3,6.6,7.1,7.8c2.6,3.4,4.8,6.9,6.4,10.4
			c3.9,8.5,5.9,17.4,5.9,26.7c0,15.3-4.9,29.8-14.7,43.5c-1.9,2.5-4.5,5.5-7.8,9.1c-5,4.7-9.3,8.2-13,10.4
			c-12.6,8-25.8,11.9-39.4,11.9h-0.4c-15.7,0-29.5-5.2-41.3-15.5c-4-3.9-6.3-6.6-7.1-7.8c-2.6-3.4-4.8-6.9-6.4-10.4
			c-3.9-8.5-5.9-17.4-5.9-26.7c0-15.3,4.9-29.8,14.7-43.5c1.9-2.5,4.5-5.5,7.8-9.1c5-4.7,9.3-8.2,13-10.4
			C1269.3,440.7,1282.4,436.7,1296,436.7z M1292.8,467.9h-0.6c-6.4,0-12.8,1.9-19.4,5.6c-2.1,1.1-4.7,3.2-7.9,6.1
			c-3.1,3.2-5.2,5.8-6.4,7.9c-4,6.6-6.1,13.5-6.1,20.6c0,9.1,3.3,17,9.8,23.7c0.1,0.1,0.9,0.7,2.2,1.9c4.1,3.1,8.5,5.2,13.1,6.2
			c2.6,0.6,4.8,0.9,6.8,0.9h0.9c0,0,0.1,0,0.1,0.1l0.2-0.1h0.6c6.4,0,12.8-1.9,19.4-5.6c2.1-1.1,4.7-3.2,7.9-6.1
			c3.1-3.2,5.2-5.8,6.4-7.9c4-6.6,6.1-13.5,6.1-20.6c0-9.1-3.3-17-9.8-23.7c-0.1-0.1-0.9-0.7-2.2-1.9c-4.2-3.3-8.8-5.4-13.7-6.4
			c-2.4-0.5-4.4-0.7-6.2-0.7h-0.9c0,0-0.1,0-0.1-0.1L1292.8,467.9z"/>
		<path id="XMLID_502_" d="M1381.8,437.8h28.2c1.2,0,2.1,1.2,2.9,3.7c3.8,8.8,14.2,33.2,31.2,73h0.1c5-48.7,7.6-73.9,7.8-75.6
			c0.5-0.7,1-1.1,1.6-1.1h28.1c0.9,0.2,1.4,0.7,1.4,1.3c-0.1,1.1-2.8,27.6-8.2,79.4c-3.3,32.7-5.1,49.8-5.3,51.3
			c-0.5,0.7-1,1.1-1.5,1.1H1440c-0.7,0-1.2-0.8-1.7-2.4c-0.4-0.8-9.6-22.3-27.5-64.5c-1-2.2-2.6-6-4.8-11.3h-0.1
			c-5,49.8-7.7,75.5-7.9,77.1c-0.5,0.7-1,1.1-1.6,1.1h-28.1c-0.9-0.2-1.4-0.7-1.4-1.3c0.1-1.1,2.8-27.4,8.1-78.8
			c3.4-33.1,5.2-50.4,5.4-51.9C1380.7,438.1,1381.2,437.8,1381.8,437.8z"/>
		<path id="XMLID_500_" d="M1507.5,437.8h79.3c1,0.2,1.5,0.7,1.5,1.5c-1.7,17.5-2.6,26.5-2.7,26.7l-38.9,54.3l-15.1,21.1h44.3
			c1.2,0.2,1.8,0.7,1.8,1.5c-1.7,17.9-2.7,26.8-2.8,26.8c-0.5,0.8-1.1,1.2-1.9,1.2h-79.3c-1-0.2-1.5-0.7-1.5-1.5
			c1.7-17.5,2.6-26.4,2.7-26.6c25-35,38.5-53.9,40.5-56.7c0.1,0,4.6-6.3,13.5-18.8h-44.3c-1.2-0.2-1.8-0.7-1.8-1.5
			c1.7-17.9,2.7-26.8,2.8-26.8C1506.1,438.2,1506.7,437.8,1507.5,437.8z"/>
		<path id="XMLID_498_" d="M1613,437.8h81.7c1,0.2,1.5,0.7,1.5,1.5c-1.7,17.3-2.6,26.2-2.8,26.7c-0.4,0.8-1.1,1.2-1.9,1.2h-51.8
			c-0.1,0-0.3,1.4-0.5,4.1l-1.9,18.3h41.4c0.9,0,1.5,0.3,1.9,1c0,0.2,0.1,0.4,0.1,0.5c-1.7,17.9-2.6,26.8-2.7,26.8
			c-0.5,0.8-1.2,1.2-2.2,1.2h-41.4c0,0.2-0.8,7.6-2.3,22.4h51.8c1.1,0.1,1.7,0.6,1.7,1.5c-1.7,17.5-2.6,26.4-2.8,26.8
			c-0.5,0.8-1.1,1.2-1.9,1.2h-81.6c-0.9-0.2-1.4-0.6-1.4-1.4c5.2-50.6,8-77.8,8.4-81.8c3.3-31.9,5-48.2,5.1-48.8
			C1611.9,438.2,1612.4,437.8,1613,437.8z"/>
	</g>
	<g id="XMLID_1_">
		<g id="XMLID_1254_">
			<path id="XMLID_19_" class="st1" d="M-479.7,343.2h-517.5c-34.3,0-54.9-28.1-45.7-62.4l86-321c9.2-34.3,44.8-62.4,79.2-62.4
				h517.5c34.3,0,54.9,28.1,45.7,62.4l-86,321C-409.7,315.1-445.3,343.2-479.7,343.2z"/>
			<linearGradient id="XMLID_55_" gradientUnits="userSpaceOnUse" x1="-554.9775" y1="385.585" x2="-802.3848" y2="-144.9819">
				<stop  offset="0" style="stop-color:#000000;stop-opacity:0.8"/>
				<stop  offset="0.25" style="stop-color:#000000;stop-opacity:0.5"/>
				<stop  offset="0.2791" style="stop-color:#020202;stop-opacity:0.4806"/>
				<stop  offset="0.7255" style="stop-color:#1A1718;stop-opacity:0.183"/>
				<stop  offset="1" style="stop-color:#231F20;stop-opacity:0"/>
			</linearGradient>
			<path id="XMLID_20_" class="st2" d="M-479.7,343.2h-517.5c-34.3,0-54.9-28.1-45.7-62.4l86-321c9.2-34.3,44.8-62.4,79.2-62.4
				h517.5c34.3,0,54.9,28.1,45.7,62.4l-86,321C-409.7,315.1-445.3,343.2-479.7,343.2z"/>
			<linearGradient id="XMLID_56_" gradientUnits="userSpaceOnUse" x1="-678.6812" y1="343.241" x2="-678.6812" y2="-102.6379">
				<stop  offset="0" style="stop-color:#FFFFFF;stop-opacity:0"/>
				<stop  offset="1" style="stop-color:#FFFFFF"/>
			</linearGradient>
			<path id="XMLID_21_" class="st3" d="M-479.7,343.2h-517.5c-34.3,0-54.9-28.1-45.7-62.4l86-321c9.2-34.3,44.8-62.4,79.2-62.4
				h517.5c34.3,0,54.9,28.1,45.7,62.4l-86,321C-409.7,315.1-445.3,343.2-479.7,343.2z"/>
		</g>
		<g id="XMLID_347_" class="st4">
			<path id="XMLID_348_" class="st5" d="M-795.3-39.5h1.8c23.8,0,45,8.2,63.4,24.7c19,18.8,28.4,41.3,28.4,67.6
				c0,4.9-1.4,18.7-4.2,41.5l-9.9,89.8c-2.1,11.1-5.5,21.2-10.1,30.5c-3.9,8.2-10.2,17.4-18.9,27.6c-7.7,7.8-13.3,12.8-16.7,15
				c-21.1,15.4-43.2,23-66.6,23h-1.5c-25.3,0-47.1-8.9-65.7-26.7c-17.6-18.5-26.4-40.3-26.4-65.6c0-4.9,1.6-20.6,4.7-46.9
				c4.4-38.5,7.5-66.3,9.3-83.4c2.7-16.1,9-31.5,19-46.3c2.8-4.4,8.1-10.7,16.1-18.7c7.7-7,15.2-12.6,22.4-16.7
				C-832.2-34.4-813.9-39.5-795.3-39.5z M-847,180.5c0,9.3,4.3,16.7,12.8,22.1c4.3,2.3,8.7,3.4,13.2,3.4c10.5,0,19.5-4.9,26.9-14.8
				c3.4-5.9,5-11.2,5-16c7.5-65.9,11.7-104.2,12.7-114.8c0-9.5-4.3-16.9-12.8-22.4c-4.4-2.3-8.8-3.4-13.2-3.4
				c-9.3,0-17.5,4-24.7,12.1c-3.4,4.2-5.5,8.4-6.4,12.6c-0.6,2.1-2.6,19.1-5.9,51C-844.5,154.9-847,178.4-847,180.5z"/>
			<path id="XMLID_363_" class="st5" d="M-657.9-37h86.3c1.9,0.5,2.9,1.6,2.9,3.3l-19.1,186c-8.2,80.6-12.5,121.5-12.7,122.7
				c-1.1,1.8-2.3,2.6-3.6,2.6h-66.9c-1.9-0.5-2.9-1.6-2.9-3.3l18.1-177l6.7-64h-15.4c-2,0-3.3-0.9-3.9-2.8v-0.6
				c4-41.2,6.2-62.5,6.5-63.9C-660.7-36-659.3-37-657.9-37z"/>
			<path id="XMLID_365_" class="st5" d="M-524.9-37h86.3c1.9,0.5,2.9,1.6,2.9,3.3l-19.1,186c-8.2,80.6-12.5,121.5-12.7,122.7
				c-1.1,1.8-2.3,2.6-3.6,2.6h-66.9c-1.9-0.5-2.9-1.6-2.9-3.3l18.1-177l6.7-64h-15.4c-2,0-3.3-0.9-3.9-2.8v-0.6
				c4-41.2,6.2-62.5,6.5-63.9C-527.7-36-526.3-37-524.9-37z"/>
		</g>
		<g id="XMLID_85_">
			<path id="XMLID_90_" class="st6" d="M-785.3-49.7h1.8c23.8,0,45,8.2,63.4,24.7c19,18.8,28.4,41.3,28.4,67.6
				c0,4.9-1.4,18.7-4.2,41.5l-9.9,89.8c-2.1,11.1-5.5,21.2-10.1,30.5c-3.9,8.2-10.2,17.4-18.9,27.6c-7.7,7.8-13.3,12.8-16.7,15
				c-21.1,15.4-43.2,23-66.6,23h-1.5c-25.3,0-47.1-8.9-65.7-26.7c-17.6-18.5-26.4-40.3-26.4-65.6c0-4.9,1.6-20.6,4.7-46.9
				c4.4-38.5,7.5-66.3,9.3-83.4c2.7-16.1,9-31.5,19-46.3c2.8-4.4,8.1-10.7,16.1-18.7c7.7-7,15.2-12.6,22.4-16.7
				C-822.1-44.6-803.9-49.7-785.3-49.7z M-837,170.3c0,9.3,4.3,16.7,12.8,22.1c4.3,2.3,8.7,3.4,13.2,3.4c10.5,0,19.5-4.9,26.9-14.8
				c3.4-5.9,5-11.2,5-16c7.5-65.9,11.7-104.2,12.7-114.8c0-9.5-4.3-16.9-12.8-22.4c-4.4-2.3-8.8-3.4-13.2-3.4
				c-9.3,0-17.5,4-24.7,12.1c-3.4,4.2-5.5,8.4-6.4,12.6c-0.6,2.1-2.6,19.1-5.9,51C-834.5,144.8-837,168.2-837,170.3z"/>
			<path id="XMLID_88_" class="st6" d="M-647.9-47.2h86.3c1.9,0.5,2.9,1.6,2.9,3.3l-19.1,186c-8.2,80.6-12.5,121.5-12.7,122.7
				c-1.1,1.8-2.3,2.6-3.6,2.6h-66.9c-1.9-0.5-2.9-1.6-2.9-3.3l18.1-177l6.7-64h-15.4c-2,0-3.3-0.9-3.9-2.8v-0.6
				c4-41.2,6.2-62.5,6.5-63.9C-650.7-46.2-649.3-47.2-647.9-47.2z"/>
			<path id="XMLID_86_" class="st6" d="M-514.9-47.2h86.3c1.9,0.5,2.9,1.6,2.9,3.3l-19.1,186c-8.2,80.6-12.5,121.5-12.7,122.7
				c-1.1,1.8-2.3,2.6-3.6,2.6h-66.9c-1.9-0.5-2.9-1.6-2.9-3.3l18.1-177l6.7-64h-15.4c-2,0-3.3-0.9-3.9-2.8v-0.6
				c4-41.2,6.2-62.5,6.5-63.9C-517.7-46.2-516.3-47.2-514.9-47.2z"/>
		</g>
		
			<text id="XMLID_215_" transform="matrix(1 0 0 1 -1046.6812 472.3016)" class="st6" style="font-family:'Genuine'; font-size:107.9143px; letter-spacing:-2;">marketing digital</text>
	</g>
</g>
<g id="Layer_2">
	<g id="XMLID_127_">
		<g id="XMLID_35_">
			<path id="XMLID_40_" class="st7" d="M106.3,0h1.3c17.9,0,33.8,6.2,47.7,18.6c14.3,14.1,21.4,31.1,21.4,50.9
				c0,3.7-1,14.1-3.1,31.3l-7.5,67.6c-1.6,8.3-4.1,16-7.6,22.9c-2.9,6.2-7.6,13.1-14.2,20.7c-5.8,5.9-10,9.6-12.6,11.3
				c-15.9,11.6-32.6,17.3-50.1,17.3h-1.1c-19,0-35.5-6.7-49.4-20.1c-13.3-13.9-19.9-30.3-19.9-49.4c0-3.7,1.2-15.5,3.5-35.3
				c3.3-29,5.6-49.9,7-62.8c2-12.1,6.8-23.7,14.3-34.9c2.1-3.3,6.1-8.1,12.1-14.1c5.8-5.3,11.4-9.5,16.9-12.6
				C78.6,3.8,92.3,0,106.3,0z M67.3,165.6c0,7,3.2,12.6,9.7,16.7c3.2,1.7,6.5,2.6,9.9,2.6c7.9,0,14.6-3.7,20.3-11.2
				c2.5-4.4,3.8-8.4,3.8-12c5.6-49.6,8.8-78.4,9.6-86.4c0-7.1-3.2-12.8-9.7-16.9c-3.3-1.7-6.6-2.6-9.9-2.6c-7,0-13.2,3-18.6,9.1
				c-2.5,3.2-4.1,6.3-4.8,9.5c-0.4,1.6-1.9,14.4-4.5,38.4C69.3,146.4,67.3,164,67.3,165.6z"/>
			<path id="XMLID_38_" class="st7" d="M209.7,1.9h65c1.5,0.4,2.2,1.2,2.2,2.5l-14.4,140c-6.2,60.7-9.4,91.5-9.6,92.4
				c-0.8,1.3-1.7,2-2.7,2h-50.4c-1.5-0.4-2.2-1.2-2.2-2.5L211.2,103l5-48.2h-11.6c-1.5,0-2.5-0.7-2.9-2.1v-0.5c3-31,4.7-47,4.9-48.1
				C207.6,2.6,208.6,1.9,209.7,1.9z"/>
			<path id="XMLID_36_" class="st7" d="M309.8,1.9h65c1.5,0.4,2.2,1.2,2.2,2.5l-14.4,140c-6.2,60.7-9.4,91.5-9.6,92.4
				c-0.8,1.3-1.7,2-2.7,2h-50.4c-1.5-0.4-2.2-1.2-2.2-2.5L311.4,103l5-48.2h-11.6c-1.5,0-2.5-0.7-2.9-2.1v-0.5c3-31,4.7-47,4.9-48.1
				C307.8,2.6,308.8,1.9,309.8,1.9z"/>
		</g>
		<g id="XMLID_128_">
			<path id="XMLID_129_" class="st7" d="M16.2,259.2h29.4c1.1,0.1,1.7,0.6,1.7,1.5c0,0.9-2,20.1-5.9,57.6v0.1h0.1
				c13-25.6,22.8-44.8,29.4-57.6c0.9-1,1.9-1.5,2.8-1.5h19.6c1.2,0,2.1,0.7,2.6,2c8.9,37.1,13.5,56.1,13.7,57c0.1,0,0.5-2.2,1.1-6.6
				l8-51.2c0.5-0.8,1.1-1.2,1.9-1.2h29.6c1,0.2,1.5,0.6,1.5,1.4L138.7,345l-8.4,54.1c-0.6,0.8-1.2,1.2-1.8,1.2h-36
				c-1.4,0-2.4-0.8-2.8-2.3c-9.9-41.3-15.3-63.5-16-66.5h-0.1l-26.8,52.6l-7.5,14.7c-1,1-1.9,1.5-2.8,1.5h-35
				c-1-0.2-1.5-0.7-1.5-1.5c6.2-60.6,9.4-91.8,9.6-93.4l4.7-44.9C14.7,259.7,15.3,259.2,16.2,259.2z"/>
			<path id="XMLID_131_" class="st7" d="M178.7,259.2h86.6c1.1,0.2,1.6,0.8,1.6,1.6c-1.8,18.3-2.8,27.8-2.9,28.3
				c-0.5,0.9-1.1,1.3-2,1.3h-54.9c-0.1,0-0.3,1.4-0.5,4.3l-2,19.4h43.9c1,0,1.6,0.3,2,1c0,0.3,0.1,0.5,0.1,0.6
				c-1.8,19-2.7,28.5-2.9,28.5c-0.5,0.8-1.3,1.2-2.3,1.2h-43.9c0,0.2-0.8,8.1-2.4,23.7h54.9c1.2,0.1,1.8,0.6,1.8,1.6
				c-1.8,18.6-2.8,28-2.9,28.4c-0.5,0.8-1.1,1.2-2,1.2h-86.4c-1-0.2-1.5-0.7-1.5-1.5c5.5-53.6,8.5-82.5,8.9-86.7
				c3.5-33.8,5.3-51.1,5.4-51.7C177.6,259.6,178.1,259.2,178.7,259.2z"/>
			<path id="XMLID_133_" class="st7" d="M294.2,259.2h32.6c18.5,0,32.6,4.6,42.2,13.8c6.7,6.9,10,15,10,24.4c0,8.9-2.9,17-8.6,24.4
				c-2.9,3.1-5,5-6.4,5.7c-0.2,0.2-0.3,0.2-0.3,0.3c1.8,0.4,4,1.7,6.6,3.9c2.4,2.4,4.3,4.9,5.5,7.5c2.3,5,3.5,10.3,3.5,15.8
				c0,10.4-3.9,19.7-11.8,27.9c-4.3,3.9-7.5,6.4-9.7,7.3c-2.5,1.6-6.1,3.3-10.7,5c-9.9,3.4-20.9,5.1-33.2,5.1h-34.2
				c-1-0.2-1.5-0.7-1.5-1.5c6.3-60.9,9.5-92.5,9.7-94.8c2.9-28.4,4.5-43,4.6-43.8C293.1,259.6,293.6,259.2,294.2,259.2z M317.3,341
				c-0.3,2.3-1.5,13-3.6,32.2h8.8c8.5,0,14.8-3.4,19.1-10.3c1.4-2.8,2.1-5.4,2.1-7.7v-0.7c0-4.7-2.3-8.4-6.8-11.1
				c-2.9-1.6-6.3-2.4-10.1-2.4H317.3z M325.2,284.3h-2.1l-3.2,31.1h8.5c6.2,0,11.1-2.2,14.8-6.6c2.4-3.1,3.6-6.4,3.6-9.7v-1
				c0-4.2-1.8-7.8-5.4-10.8c-2.8-2-6.3-3-10.4-3C329,284.3,327,284.3,325.2,284.3z"/>
		</g>
	</g>
</g>
</svg>
